<svg width="561" height="489" viewBox="0 0 561 489" xmlns="http://www.w3.org/2000/svg" fill="none"><g clip-path="url(#a)"><path d="M354.829 115.806h-2.675v-73.352c0-5.575-1.097-11.096-3.228-16.247-2.132-5.151-5.256-9.831-9.194-13.773-3.938-3.942-8.613-7.069-13.759-9.203-5.145-2.134-10.66-3.232-16.23-3.232h-155.246c-5.569 0-11.084 1.098-16.229 3.232-5.146 2.134-9.821 5.261-13.759 9.203-3.939 3.942-7.063 8.622-9.194 13.773-2.131 5.151-3.228 10.671-3.228 16.247v402.416c0 5.575 1.097 11.095 3.228 16.246 2.131 5.151 5.255 9.831 9.194 13.773 3.938 3.942 8.613 7.07 13.759 9.203 5.145 2.134 10.66 3.232 16.229 3.232h155.246c5.57 0 11.085-1.098 16.23-3.232 5.146-2.133 9.821-5.261 13.759-9.203 3.938-3.942 7.062-8.622 9.194-13.773 2.131-5.151 3.228-10.671 3.228-16.246v-276.85h2.675v-52.214zm136.187 351.51h-490.849v1.368h490.849v-1.368z" fill="#3F3D56"/><path opacity=".2" d="M311.455 11.045h-20.265c.932 2.287 1.288 4.769 1.036 7.226s-1.104 4.815-2.48 6.865-3.235 3.73-5.413 4.892c-2.178 1.162-4.607 1.769-7.075 1.769h-88.938c-2.468 0-4.897-.608-7.075-1.769-2.178-1.162-4.037-2.841-5.413-4.892-1.376-2.05-2.228-4.408-2.48-6.865-.251-2.457.104-4.939 1.036-7.226h-18.927c-4.159 0-8.278.82-12.12 2.413-3.843 1.593-7.334 3.929-10.275 6.873-2.941 2.944-5.274 6.439-6.866 10.286-1.592 3.846-2.411 7.969-2.411 12.133v401.825c0 4.164.819 8.286 2.411 12.133 1.592 3.847 3.925 7.342 6.866 10.286s6.432 5.279 10.275 6.872c3.842 1.594 7.961 2.414 12.12 2.414h155.994c4.159 0 8.277-.82 12.12-2.414 3.842-1.593 7.334-3.928 10.275-6.872 2.941-2.944 5.274-6.439 6.865-10.286 1.592-3.847 2.411-7.969 2.411-12.133v-401.825c0-4.163-.819-8.286-2.411-12.133-1.591-3.847-3.924-7.342-6.865-10.286-2.941-2.944-6.433-5.279-10.275-6.873-3.843-1.593-7.961-2.413-12.12-2.413z"/><path d="M48.923 468.612l-.734-.276c-.161-.061-16.208-6.215-23.725-20.17-7.517-13.955-3.836-30.758-3.798-30.925l.173-.765.733.275c.161.061 16.208 6.215 23.725 20.17 7.517 13.955 3.836 30.758 3.798 30.925l-.173.766zm-23.255-21.095c6.355 11.799 19.036 17.847 22.249 19.227.611-3.447 2.526-17.386-3.823-29.174-6.349-11.786-19.035-17.843-22.249-19.227-.611 3.449-2.526 17.387 3.823 29.174z" fill="#3F3D56"/><path d="M30.209 443.271c13.509 8.136 18.712 24.296 18.712 24.296s-16.7 2.969-30.209-5.167c-13.509-8.135-18.712-24.295-18.712-24.295s16.7-2.97 30.209 5.166zm163.006-285.95h-30.054v7.242h30.054v-7.242zm104.074 0h-10.574v7.242h10.574v-7.242zm21.149 0h-10.574v7.242h10.574v-7.242zm-42.854 0h-71.795v7.242h71.795v-7.242zm-16.14 46.798h-10.575v7.243h10.575v-7.243zm21.149 0h-10.575v7.243h10.575v-7.243zm-42.855 0h-71.794v7.243h71.794v-7.243zm41.742-30.642h-30.054v7.243h30.054v-7.243zm40.628 0h-30.054v7.243h30.054v-7.243zm-163.069 0h-10.574v7.243h10.574v-7.243zm82.369 0h-71.795v7.243h71.795v-7.243zm-52.316 22.842h30.054v-7.242h-30.054v7.242zm-40.627 0h30.053v-7.242h-30.053v7.242zm163.068 0h10.575v-7.242h-10.575v7.242zm-82.369 0h71.795v-7.242h-71.795v7.242zm6.294 141.656c15.102 0 27.345-12.255 27.345-27.373s-12.243-27.374-27.345-27.374c-15.103 0-27.345 12.256-27.345 27.374 0 15.118 12.242 27.373 27.345 27.373z" fill="#3391CC"/><path d="M409.78 148.832c-7.935-13.421-23.634-14.046-23.634-14.046s-15.297-1.959-25.11 18.482c-9.147 19.053-21.77 37.448-2.032 41.909l3.565-11.108 2.208 11.935c2.81.202 5.629.25 8.445.144 21.137-.683 41.268.2 40.62-7.393-.862-10.094 3.573-27.009-4.062-39.923z" fill="#2F2E41"/><path d="M381.204 174.108s10.255 14.371 4.102 26.005c-6.153 11.633 14.356 23.952 14.356 23.952l15.04-32.849s-17.774-11.634-12.989-22.583l-20.509 5.475zm6.837 6.159c9.816 0 17.774-7.966 17.774-17.793 0-9.827-7.958-17.793-17.774-17.793-9.817 0-17.775 7.966-17.775 17.793 0 9.827 7.958 17.793 17.775 17.793zm-61.513 2.775l14.854-19.184s5.23-20.109 12.805-19.09c7.575 1.019-2.992 24.116-2.992 24.116l-14.759 21.235-9.908-7.077zm75.185 255.221l4.786 25.32 10.254 2.737-2.734-30.11-12.306 2.053zm103.229-27.374l18.458 25.32 7.52 3.422 6.153-10.265-18.458-23.952-13.673 5.475z" fill="#FBBEBE"/><path d="M397.611 213.115l-11.403-15.028s-22.095 4.079-24.146 6.132c-2.05 2.053 5.469 39.691 5.469 39.691s1.368 10.265 7.52 15.74l6.153 4.106 50.589-10.265 1.902-22.532c.693-8.207-.334-16.469-3.016-24.256-2.682-7.786-6.96-14.926-12.559-20.961l-8.802 1.204-11.707 26.169zm-32.814-7.528l-3.418-1.368-15.724-1.369s-5.469-1.369-4.101-4.106c1.367-2.737 2.734-3.422 0-4.106-2.735-.684-3.419-1.369-2.735-3.422.684-2.053 4.785-6.159 4.785-6.159l-11.621-9.581s-.629.446-1.646 1.27c-5.77 4.676-24.028 21.549-10.66 38.422 15.724 19.846 34.182 31.48 49.222 27.374l-4.102-36.955z" fill="#575A89"/><path d="M379.837 260.334v9.581s-6.152 11.634-4.102 22.583c2.051 10.95 2.735 16.425 2.735 16.425.223 9.312 1.836 18.538 4.785 27.373 4.786 13.687-10.938 103.335 8.888 104.704 19.825 1.369 30.763 2.737 36.916-4.106 6.153-6.843-10.255-124.55-10.255-124.55s56.058 117.022 67.68 112.232c11.622-4.79 41.018-15.74 37.6-21.899-3.418-6.159-89.556-143.027-89.556-143.027l-2.735-6.159-51.956 6.843zm32.814 198.459s-10.938-.684-10.938 2.737c0 3.422-5.469 15.056-5.469 15.056s-4.102 13.687 6.836 12.318c10.939-1.369 17.775-13.687 17.775-13.687l-2.735-13.002-5.469-3.422zm114.167-23.952s-9.571-6.159-8.887-2.053c.684 4.106 1.367 15.055 6.153 15.74 4.785.684 19.141 4.79 19.825 6.159.684 1.368 17.091 6.843 17.091-2.053 0-8.897-10.255-15.74-10.255-15.74l-11.621-8.896s-7.52-.685-8.888 4.106c-1.367 4.79-3.418 2.737-3.418 2.737zm-138.75-288.625c6.269 0 11.351-5.087 11.351-11.362 0-6.276-5.082-11.363-11.351-11.363-6.269 0-11.351 5.087-11.351 11.363 0 6.275 5.082 11.362 11.351 11.362zm-12.546-14.353c0-2.806 1.038-5.513 2.913-7.599 1.875-2.086 4.455-3.404 7.243-3.699-1.583-.169-3.184-.003-4.698.488-1.515.491-2.91 1.296-4.093 2.361-1.184 1.066-2.131 2.369-2.779 3.824-.648 1.456-.983 3.032-.983 4.625 0 1.594.335 3.17.983 4.626.648 1.455 1.595 2.758 2.779 3.824 1.183 1.065 2.578 1.87 4.093 2.361 1.514.49 3.115.657 4.698.488-2.788-.295-5.368-1.613-7.243-3.699s-2.913-4.793-2.913-7.6zm30.749 15.676l-15.509-8.133-21.418 3.327-4.43 19.592 11.03-.425 3.082-7.198v7.079l5.09-.195 2.953-11.46 1.847 12.199 18.094-.37-.739-14.416z" fill="#2F2E41"/><path d="M405.343 261.92l-23.918.647s-20.41 3.976-19.265-4.271c1.146-8.246 21.056-5.362 21.056-5.362l21.794-3.328.333 12.314z" fill="#FBBEBE"/><path d="M424.267 184.581c1.203-.182 2.43.072 3.462.715 1.033.643 1.801 1.634 2.169 2.795 4.682 14.771 19.108 64.2 4.775 70.981-16.881 7.988-29.201 7.637-29.201 7.637l-6.594-16.252 6.003-5.639 6.409-41.249 3.071-17.485 9.906-1.503z" fill="#575A89"/><path opacity=".4" d="M419.83 212.088l-2.735 27.374-23.927 10.265 26.662-6.159v-31.48z"/></g><defs><clipPath id="a"><path fill="#fff" d="M0 0h561v489h-561z"/></clipPath></defs></svg>