<svg width="546" height="424" viewBox="0 0 546 424" xmlns="http://www.w3.org/2000/svg" fill="none"><g clip-path="url(#a)"><path d="M404.521 242.229l-108.431-135.464c-4.923 4.501-10.989 7.563-17.535 8.852-20.414 4.019-40.349-9.917-44.527-31.128-2.954-14.994 2.764-29.6 13.576-38.299l-36.972-46.19-210.632 179.973 193.889 242.23 210.632-179.974z" fill="#F2F2F2"/><path d="M46.236 423.437h499.764" stroke="#3F3D56" stroke-width="2" stroke-miterlimit="10"/><path d="M348.613 40.327c4.587 0 8.305-3.717 8.305-8.302 0-4.585-3.718-8.302-8.305-8.302-4.586 0-8.304 3.717-8.304 8.302 0 4.585 3.718 8.302 8.304 8.302zm109.746 241.381c4.586 0 8.304-3.717 8.304-8.303 0-4.585-3.718-8.302-8.304-8.302-4.587 0-8.305 3.717-8.305 8.302 0 4.586 3.718 8.303 8.305 8.303zm-362.292-220.563c4.586 0 8.304-3.717 8.304-8.302 0-4.585-3.718-8.302-8.304-8.302s-8.304 3.717-8.304 8.302c0 4.585 3.718 8.302 8.304 8.302z" stroke="#3F3D56" stroke-width="2" stroke-miterlimit="10"/><path d="M269.792 109.181c16.882 0 30.568-13.682 30.568-30.561 0-16.878-13.686-30.561-30.568-30.561-16.883 0-30.569 13.683-30.569 30.561s13.686 30.561 30.569 30.561z" fill="#F2F2F2"/><path d="M88.294 61.544h135.418c6.534 0 12.874 2.223 17.978 6.303 5.104 4.08 8.667 9.775 10.104 16.148l68.424 303.424c.746 3.309.759 6.742.038 10.057-.721 3.316-2.158 6.433-4.212 9.134-2.053 2.701-4.673 4.92-7.675 6.502-3.002 1.582-6.313 2.488-9.703 2.655l-139.21 6.857c-7.454.367-14.788-1.989-20.632-6.631-5.843-4.641-9.799-11.249-11.127-18.591l-38.814-214.525-2.888.825-7.427-40.66 2.972-.743-10.834-59.881c-.464-2.565-.356-5.201.315-7.719.672-2.519 1.891-4.858 3.57-6.851 1.68-1.994 3.779-3.592 6.147-4.681 2.368-1.09 4.948-1.643 7.555-1.622z" fill="#3F3D56"/><path d="M205.884 68.085h15.808c4.539 0 8.942 1.552 12.478 4.399 3.535 2.847 5.991 6.817 6.958 11.251l65.678 300.948c.378 1.733.378 3.527-.001 5.259-.379 1.733-1.127 3.363-2.194 4.78-1.067 1.417-2.427 2.587-3.988 3.43-1.56.844-3.285 1.34-5.055 1.456l-138.76 9.092c-3.914.257-7.786-.937-10.877-3.353-3.091-2.415-5.183-5.884-5.879-9.744l-56.043-311.06c-.363-2.013-.279-4.082.245-6.059.524-1.977 1.476-3.816 2.788-5.385 1.312-1.569 2.953-2.832 4.807-3.698 1.854-.866 3.875-1.315 5.921-1.315h14.996c1.451 0 2.862.478 4.014 1.361 1.152.883 1.981 2.12 2.358 3.521.333 1.237 1.065 2.33 2.082 3.109 1.017.779 2.262 1.201 3.544 1.201h71.19c2.509 0 4.925-.947 6.766-2.651 1.841-1.704 2.971-4.041 3.163-6.542z" fill="#3391CC"/><path d="M250.091 145.87h-143.584v.707h143.584v-.707zm5.659 22.981h-144.999v.708h144.999v-.708zm-140.176-24.101l3.263-4.349-.566-.424-2.819 3.758-10.866-8.887-.447.548 11.435 9.354zm18.744 102.534l3.263-4.348-.566-.424-2.82 3.758-10.865-8.887-.448.547 11.436 9.354zm137.339.06l-150.304 3.182.015.707 150.304-3.182-.015-.707zm4.596 20.86l-153.132 3.536.016.707 153.133-3.536-.017-.707z" fill="#2F2E41"/><path opacity=".1" d="M182.366 328.487c0 8.909 3.54 17.452 9.841 23.751 6.3 6.3 14.846 9.838 23.756 9.838 8.911 0 17.457-3.538 23.757-9.838 6.301-6.299 9.841-14.842 9.841-23.751 0-.42-.007-.837-.025-1.255-.329-8.793-4.096-17.106-10.492-23.152-6.396-6.045-14.909-9.34-23.709-9.176-8.8.165-17.185 3.775-23.35 10.055-6.165 6.281-9.619 14.729-9.619 23.528zm3.183 13.083c0 .42.007.837.025 1.255 3.259 6.901 8.772 12.488 15.63 15.839 6.859 3.352 14.654 4.268 22.104 2.599 7.449-1.669 14.108-5.824 18.879-11.782 4.772-5.957 7.373-13.361 7.374-20.994 0-.42-.007-.837-.025-1.255-3.259-6.901-8.772-12.488-15.63-15.839-6.859-3.352-14.655-4.268-22.104-2.599-7.449 1.669-14.108 5.824-18.88 11.782-4.772 5.957-7.372 13.361-7.373 20.994z"/><path d="M389.992 152.884c11.439 0 20.711-9.27 20.711-20.706 0-11.435-9.272-20.706-20.711-20.706-11.438 0-20.711 9.271-20.711 20.706 0 11.436 9.273 20.706 20.711 20.706z" fill="#2F2E41"/><path d="M412.336 391.647l3.939 16.88h-9.567l-3.94-19.131 9.568 2.251zm-46.149 0v15.755l-9.568 1.125v-16.88h9.568zm48.963-178.926s-1.126 24.195-2.252 25.883c-1.125 1.688-11.256 25.882-11.256 25.882l-5.065-15.754s7.879-12.942 6.754-20.256c-1.126-7.315-.417-16.316-.417-16.316l12.236.561zm-32.08-58.516c8.703 0 15.758-7.054 15.758-15.755s-7.055-15.754-15.758-15.754-15.758 7.053-15.758 15.754 7.055 15.755 15.758 15.755zm12.944-14.067s-.562 22.507 3.377 25.883c3.94 3.375-22.512.562-22.512.562s5.628-15.754 1.126-19.13c-4.502-3.376 18.009-7.315 18.009-7.315z" fill="#9F616A"/><path d="M375.191 165.458s3.377-6.189 7.879-5.627c4.503.563 19.135 1.688 19.698 2.814.563 1.125 2.251 5.064 3.377 6.189 1.125 1.125 9.567 2.813 10.13 9.565.563 6.752-20.26 47.826-20.26 47.826s2.813 9.565 2.251 11.816c-.563 2.251 2.814 9.003 2.251 11.816-.563 2.813 8.442 19.693 3.939 41.637v35.447s15.196 61.33 10.694 65.831c-4.503 4.502-19.698 1.688-22.512 0l-14.633-86.649-5.628-28.696-.563 63.018s1.126 52.89-2.814 54.578c-3.939 1.688-19.135 2.251-20.26-1.125-.878-2.633-5.18-72.69-7.03-103.398-.641-10.6.193-21.237 2.478-31.608 2.342-10.622 5.743-23.101 9.617-28.166 7.316-9.565 11.818-39.948 11.818-39.948l-9.567-17.443s5.628-5.626 9.005-5.626c3.376 0 10.13-2.251 10.13-2.251zm37.707 9.002l2.968 2.02s2.098 36.241.409 38.492c-1.688 2.251-13.427 1.152-14.311-.831-.884-1.982 10.934-39.681 10.934-39.681z" fill="#2F2E41"/><path d="M362.71 207.412c1.647 11.425 3.091 21.597-5.332 30.798-8.466 9.312-18.013 17.581-28.441 24.629-1.033 2.736-16.2 22.828-16.971 14.814-.772-8.015 4.468-14.298 11.915-21.075 7.447-6.778 17.864-21.483 23.743-29.552 5.878-8.068 3.458-13.1 3.254-19.84-.205-6.739 9.521.307 11.832.226z" fill="#9F616A"/><path d="M356.619 398.286s-.563 6.302-2.252 7.99c-1.688 1.688-6.19 3.939-5.627 10.128.562 6.189 4.22 6.471 4.22 6.471l-.281-1.407 1.688.563.282.844h15.758s.282-5.908-.281-8.722c-.563-2.813-.563-16.317-2.251-15.754-1.689.563-6.191 1.125-7.317 3.376-1.125 2.251-4.502 1.462-3.939-3.489zm57.405 0s.563 6.302 2.251 7.99c1.688 1.688 6.191 3.939 5.628 10.128-.563 6.189-4.221 6.471-4.221 6.471l.281-1.407-1.688.563-.281.844h-15.759s-.281-5.908.282-8.722c.563-2.813.563-16.317 2.251-15.754 1.688.563 6.191 1.125 7.316 3.376 1.126 2.251 4.503 1.462 3.94-3.489zm-50.089-226.639l-7.879 1.688s0 12.379-2.251 17.443c-2.252 5.064-6.191 16.879-4.503 17.442 1.689.563 17.447 8.44 18.573 3.939 1.125-4.502 3.939-40.512-3.94-40.512zm48.494-46.026c11.439 0 20.711-9.27 20.711-20.705 0-11.436-9.272-20.706-20.711-20.706-11.438 0-20.71 9.27-20.71 20.706 0 11.435 9.272 20.705 20.71 20.705zm17.864-3.56c-2.68 1.937-5.786 3.204-9.057 3.695-3.271.491-6.611.192-9.743-.873-3.131-1.064-5.962-2.863-8.256-5.245-2.293-2.383-3.983-5.28-4.927-8.449.358 2.84 1.3 5.575 2.768 8.033 1.468 2.457 3.429 4.584 5.761 6.245 2.331 1.662 4.982 2.822 7.784 3.407 2.803.586 5.697.584 8.499-.005 2.801-.588 5.451-1.752 7.78-3.416 2.33-1.664 4.289-3.793 5.754-6.252 1.465-2.46 2.404-5.196 2.758-8.036.354-2.841.114-5.724-.702-8.467.464 3.685-.073 7.428-1.554 10.835-1.482 3.407-3.853 6.353-6.865 8.528zm-34.778 28.752c8.388 0 15.188-6.798 15.188-15.184s-6.8-15.184-15.188-15.184c-8.388 0-15.188 6.798-15.188 15.184s6.8 15.184 15.188 15.184zm-12.771-10.353c7.434 0 13.462-4.712 13.462-10.525 0-5.813-6.028-10.525-13.462-10.525-7.435 0-13.463 4.712-13.463 10.525 0 5.813 6.028 10.525 13.463 10.525z" fill="#2F2E41"/><path d="M379.153 145.24c1.411 0 2.555-2.024 2.555-4.52 0-2.495-1.144-4.519-2.555-4.519-1.411 0-2.555 2.024-2.555 4.519 0 2.496 1.144 4.52 2.555 4.52z" fill="#A0616A"/></g><defs><clipPath id="a"><path fill="#fff" d="M0 0h546v424h-546z"/></clipPath></defs></svg>