<svg width="71" height="71" viewBox="0 0 71 71" xmlns="http://www.w3.org/2000/svg" fill="none"><circle cx="35.5" cy="35.5" r="35.5" fill="#3391CC"/><path d="M43.931 21.939c3.585 3.905 3.585 9.319 0 12.904l-2.982-3c1.491-2.095 1.491-4.81 0-6.905l2.982-3zm5.875-5.964c6.994 7.189 6.923 17.945 0 24.85l-2.893-2.893c4.917-5.645 4.917-13.703 0-19.064l2.893-2.893zm-19.631 5.325c3.905 0 7.1 3.177 7.1 7.1 0 3.923-3.195 7.1-7.1 7.1s-7.1-3.177-7.1-7.1c0-3.923 3.177-7.1 7.1-7.1zm7.1 18.708c0 1.882-.515 6.266-3.905 11.165l-1.42-8.573 1.651-3.337c-1.1-.124-2.254-.213-3.426-.213-1.172 0-2.361.089-3.461.213l1.686 3.337-1.455 8.573c-3.39-4.899-3.87-9.283-3.87-11.165-4.26 1.242-7.111 3.479-7.111 6.142v7.1h28.411v-7.1c0-2.663-2.858-4.899-7.1-6.142z" fill="#fff"/></svg>