<svg width="167" height="144" viewBox="0 0 167 144" xmlns="http://www.w3.org/2000/svg" fill="none"><path d="M106.763 38.856c-2.462 0-4.763 1.644-6.521 2.728 0 0-3.514 4.85-3.742 4.916-1.5 1.5-2.955 6.321-5.47 7.438-1.888.839-2.232 1.728-4.473 2.008-2.394.299-4.661 1.533-6.786 2.539-1.817.86-4.101.498-5.762 1.857-.857.701-2.923 2.265-3.943 2.387-3.252.39-6.691 2.206-10.084 2.69-1.645.235-3.881.524-5.307 1.402-1.532.942-3.055.31-4.625 1.023-7.996 3.633-17.145 2.583-25.172 6.48-3.336 1.62-6.835 2.562-8.605 6.101-.309.617-4.718 6.122-5.042 6.215-1.108.317-3.018 5.025-3.943 5.949-1.709 1.709-3.943 5.493-3.943 8.336 0 2.44.491 5.467-.038 7.845-.566 2.547-2.009 5.229-2.009 7.882 0 6.416-.675 12.654 0 19.06.19 1.802 1.365 2.869 1.365 4.775 0 .768.478 2.974 1.024 3.41.786.629.804 2.706 1.706 3.714 1.118 1.249 1.31 3.378 2.426 4.812 3.57 4.588 6.09 8.935 9.174 13.832 1.551 2.462 4.707 7.313 7.165 8.678 2.657 1.475 5.216 3.579 7.582 5.418 2.171 1.688 4.645 2.963 7.089 4.32 2.583 1.435 4.826 3.925 7.658 5.078 2.881 1.173 4.395 4.534 7.696 5.267 2.934.652 5.969 1.588 8.909 2.122 1.637.298 2.635 1.984 4.056 2.615 1.136.505 3.199.076 4.435.076l16.073-.682c6.262 0 12.473-.682 18.69-.682 3.889 0 7.596-1.364 11.334-1.364 8.776 0 17.263-1.365 25.892-1.365h19.902c1.184 0 5.162 1.375 6.217.531 1.427-1.141 4.193-.363 5.99-.682 3.524-.625 8.178-1.283 11.373-2.88.828-.414 1.245-1.061 2.236-1.061 2.645 0 5.42-.682 8.189-.682 2.71 0 5.17.588 6.634-2.047 1.332-2.396 3.332-2.747 4.473-5.456.866-2.056-2.041-6.965-2.54-9.209-.829-3.729-.72-8.074-.72-11.898 0-5.604 1.549-10.098 2.047-15.575.205-2.257.682-4.348.682-6.631 0-2.267-1.265-4.629-1.364-7.011-.198-4.746-1.244-9.644-.645-14.437.509-4.072 1.327-7.747 1.327-11.937 0-15.294 1.365-29.692 1.365-45.056v-36.795c0-1.386.775-6.989-.341-7.882-1.037-.829-1.292-6.299-1.365-7.162-.211-2.483-.089-4.56-1.858-6.328-2.137-2.137-5.434-.951-8.036-2.046-2.403-1.011-6.945-.152-9.553-.152h-12.624c-7.225 0-15.456 3.777-21.495 6.973-4.358 2.306-6.757 9.525-11.221 10.8-2.693.769-5.156 3.815-7.923 4.737-2.026.675-4.572 2.339-6.103 3.789-.64.606-2.428 3.481-3.108 3.676-2.09.597-4.062.857-6.142 1.781-2.917 1.296-5.041 2.025-7.809 3.562-1.847 1.026-2.081 2.198-4.397 2.198z" fill="#F2FBF1" stroke="#F8FAFD" stroke-linecap="round" stroke-linejoin="round"/></svg>