<svg width="169" height="150" viewBox="0 0 169 150" xmlns="http://www.w3.org/2000/svg" fill="none"><path d="M4.206 123.575v20.708c0 1.369 3.002 4.396 4.343 4.121.238-.049.485-.089.726-.056 6.142.843 13.053.868 18.451.077.546-.08 1.096-.128 1.649-.128h16.936c4.109 0 7.925.827 13.799.15.773-.089 1.557-.112 2.332-.049 9.385.759 12.721-.173 16.596-.101 6.49.12 9.281 0 15.896 0 5.192 0 10.723-.371 15.896 0 4.386.314 7.689 0 12.156 0 6.465 0 13.223.804 19.636 0 6.546 0 13.151.504 18.96-.866 1.772-.418 5.352-1.61 5.352-3.821 0-3.166-.166-6.378 0-9.375v-12.187c0-10.396.775-21.562.935-31.901-.16-6.535-.16-13.527-.16-20.392 0-4.128.915-9.383-.499-13.321-.591-1.646-1.658-.979-2.85-1.714-2.002-1.236-4.094-2.411-5.949-3.857-1.407-1.097-3.017-1.827-4.203-3.214-.465-.544-2.958-2.522-3.669-2.786-5.307-1.971-12.382-6.301-16.956-9.714-2.054-1.533-3.965-2.795-5.913-4.357-2.054-1.647-4.93-3.033-6.483-5.035-1.275-1.643-5.053-3.475-6.982-4.178-.596-.217-2.862-2.069-2.921-2.571-.19-1.619-2.13-2.268-2.707-3.714-.493-1.235-2.347-3.477-3.384-4.286-4.289-3.345-8.87-3.738-14.142-5.5-3.56-1.19-6.136-1.928-9.903-1.928-4.534 0-8.424-2.445-12.824-2.571-3.846-.11-8.395.883-11.933 2.286-3.925 1.556-8.202 3.018-12.361 3.786-2.243.414-5.566 1.17-7.552 2.214-2.472 1.3-5.699 2.51-7.765 4.428-1.154 1.072-2.863 3.642-4.31 3.964-3 .669-4.547 4.121-6.091 6.321-1.063 1.515-2.517 2.843-3.705 4.143-.835.913-3.007 4.284-3.313 5.357-1.278 4.483-4.944 9.23-5.165 14.214-.257 5.799-3.044 11.443-3.206 17.285-.059 2.127 0 4.264 0 6.393v14.464c0 2.437-1.175 4.537-1.282 6.857-.159 3.421-.641 6.722-.641 10.178 0 5.036 1.758 9.499 1.924 14.321.077 2.243 1.282 4.089 1.282 6.357z" fill="#F2FBF1" stroke="#F2FBF1" stroke-linecap="round" stroke-linejoin="round"/></svg>