<svg width="71" height="71" viewBox="0 0 71 71" xmlns="http://www.w3.org/2000/svg" fill="none"><circle cx="35.5" cy="35.5" r="35.5" fill="#3391CC"/><path d="M35.5 45.263c4.136 0 7.633-2.592 9.07-6.213h-18.14c1.42 3.621 4.934 6.213 9.07 6.213zm-6.212-11.538c.706 0 1.383-.281 1.883-.78.499-.499.78-1.177.78-1.883s-.28-1.383-.78-1.883c-.499-.499-1.177-.78-1.883-.78s-1.383.28-1.883.78c-.499.499-.78 1.177-.78 1.883s.28 1.383.78 1.883c.499.499 1.177.78 1.883.78zm12.425 0c.706 0 1.383-.281 1.883-.78.499-.499.78-1.177.78-1.883s-.28-1.383-.78-1.883c-.499-.499-1.176-.78-1.883-.78-.706 0-1.383.28-1.883.78-.499.499-.78 1.177-.78 1.883s.28 1.383.78 1.883c.499.499 1.176.78 1.883.78zm-6.213 15.975c-3.766 0-7.378-1.496-10.041-4.159-2.663-2.663-4.159-6.275-4.159-10.041s1.496-7.378 4.159-10.041c2.663-2.663 6.275-4.159 10.041-4.159s7.378 1.496 10.041 4.159c2.663 2.663 4.159 6.275 4.159 10.041s-1.496 7.378-4.159 10.041c-2.663 2.663-6.275 4.159-10.041 4.159zm0-31.95c-9.816 0-17.75 7.988-17.75 17.75 0 4.708 1.87 9.222 5.199 12.551 1.648 1.648 3.605 2.956 5.759 3.848 2.154.892 4.462 1.351 6.793 1.351 4.708 0 9.222-1.87 12.551-5.199 3.329-3.329 5.199-7.843 5.199-12.551 0-2.331-.459-4.639-1.351-6.793-.892-2.154-2.199-4.11-3.848-5.759-1.648-1.648-3.605-2.956-5.759-3.848-2.153-.892-4.462-1.351-6.793-1.351z" fill="#fff"/></svg>