<svg width="71" height="71" viewBox="0 0 71 71" xmlns="http://www.w3.org/2000/svg" fill="none"><circle cx="35.5" cy="35.5" r="35.5" fill="#3391CC"/><path d="M35.5 17.75c1.412 0 2.767.561 3.765 1.56.999.999 1.56 2.353 1.56 3.765v10.65c0 1.412-.561 2.767-1.56 3.765-.999.999-2.353 1.56-3.765 1.56s-2.767-.561-3.765-1.56c-.999-.999-1.56-2.353-1.56-3.765v-10.65c0-1.412.561-2.767 1.56-3.765.999-.999 2.353-1.56 3.765-1.56zm12.425 15.975c0 6.266-4.633 11.431-10.65 12.301v5.449h-3.55v-5.449c-6.017-.87-10.65-6.035-10.65-12.301h3.55c0 2.354.935 4.611 2.599 6.276 1.664 1.664 3.922 2.599 6.276 2.599 2.354 0 4.611-.935 6.276-2.599 1.664-1.664 2.599-3.922 2.599-6.276h3.55z" fill="#fff"/></svg>