<svg width="131" height="123" viewBox="0 0 131 123" xmlns="http://www.w3.org/2000/svg" fill="none"><path d="M3.369 109.732c-.306 1.943-1.401 3.124-2.169 4.621-1.94 3.781 2.689 6.923 6.938 6.977 26.591.334 119.524 1.395 119.524-.135 0-1.868 1.412-16.064 1.412-18.011v-9.006l.508-6.754c0-11.027-2.002-19.798 0-30.769.559-3.061.497-8.218.169-11.642-.092-.958-.373-1.886-.779-2.758-1.518-3.264-2.352-4.926-3.32-7.577-.6-1.644-2.169-3.856-3.075-5.46-.988-1.75-2.2-4.376-3.609-5.78-3.033-3.022-6.649-5.576-8.769-9.588-1.482-2.805-3.712-5.611-6.897-6.765-1.618-.586-2.361-2.299-3.476-3.409-1.301-1.296-3.806-1.697-5.614-1.784-4.677-.227-9.49-.506-14.33-.506h-5.16c-1.527 0-2.789.959-4.358.959-1.135 0-1.987.811-3.128.985-1.308.2-2.711.463-3.983.826-1.861.53-3.927 1.256-5.668 1.571-3.937.713-8.127 4.06-10.533 7.111-2.471 3.133-5.742 6.064-7.111 9.748-1.359 3.657-3.645 7.157-5.293 10.441-.635 1.265-1.987 2.266-2.807 3.409-1.551 2.163-2.631 4.52-4.197 6.659-1.285 1.755-2.398 4.152-2.994 6.232-.687 2.395-1.061 4.984-1.925 7.298-.95 2.545-2.702 5.068-3.342 7.724-.538 2.236-1.901 4.166-2.433 6.552-.61 2.734-1.197 5.843-2.032 8.523-1.102 3.539-1.637 7.061-2.673 10.547-1.289 4.333-4.555 7.181-6.737 11.133-.489.885-.881 1.48-1.105 2.421-.331 1.394-.571 2.831-.78 4.248-.094.636-.148 1.282-.255 1.96z" fill="#F2FBF1" stroke="#FEF9F4" stroke-linecap="round" stroke-linejoin="round"/></svg>