<svg xmlns="http://www.w3.org/2000/svg">

    <!-- Hero-Image -->
    <symbol id="hero-image" width="561" height="489" viewBox="0 0 561 489">
        <g clip-path="url(#a)"><path d="M354.829 115.806h-2.675v-73.352c0-5.575-1.097-11.096-3.228-16.247-2.132-5.151-5.256-9.831-9.194-13.773-3.938-3.942-8.613-7.069-13.759-9.203-5.145-2.134-10.66-3.232-16.23-3.232h-155.246c-5.569 0-11.084 1.098-16.229 3.232-5.146 2.134-9.821 5.261-13.759 9.203-3.939 3.942-7.063 8.622-9.194 13.773-2.131 5.151-3.228 10.671-3.228 16.247v402.416c0 5.575 1.097 11.095 3.228 16.246 2.131 5.151 5.255 9.831 9.194 13.773 3.938 3.942 8.613 7.07 13.759 9.203 5.145 2.134 10.66 3.232 16.229 3.232h155.246c5.57 0 11.085-1.098 16.23-3.232 5.146-2.133 9.821-5.261 13.759-9.203 3.938-3.942 7.062-8.622 9.194-13.773 2.131-5.151 3.228-10.671 3.228-16.246v-276.85h2.675v-52.214zm136.187 351.51h-490.849v1.368h490.849v-1.368z" fill="#3F3D56"/><path opacity=".2" d="M311.455 11.045h-20.265c.932 2.287 1.288 4.769 1.036 7.226s-1.104 4.815-2.48 6.865-3.235 3.73-5.413 4.892c-2.178 1.162-4.607 1.769-7.075 1.769h-88.938c-2.468 0-4.897-.608-7.075-1.769-2.178-1.162-4.037-2.841-5.413-4.892-1.376-2.05-2.228-4.408-2.48-6.865-.251-2.457.104-4.939 1.036-7.226h-18.927c-4.159 0-8.278.82-12.12 2.413-3.843 1.593-7.334 3.929-10.275 6.873-2.941 2.944-5.274 6.439-6.866 10.286-1.592 3.846-2.411 7.969-2.411 12.133v401.825c0 4.164.819 8.286 2.411 12.133 1.592 3.847 3.925 7.342 6.866 10.286s6.432 5.279 10.275 6.872c3.842 1.594 7.961 2.414 12.12 2.414h155.994c4.159 0 8.277-.82 12.12-2.414 3.842-1.593 7.334-3.928 10.275-6.872 2.941-2.944 5.274-6.439 6.865-10.286 1.592-3.847 2.411-7.969 2.411-12.133v-401.825c0-4.163-.819-8.286-2.411-12.133-1.591-3.847-3.924-7.342-6.865-10.286-2.941-2.944-6.433-5.279-10.275-6.873-3.843-1.593-7.961-2.413-12.12-2.413z"/><path d="M48.923 468.612l-.734-.276c-.161-.061-16.208-6.215-23.725-20.17-7.517-13.955-3.836-30.758-3.798-30.925l.173-.765.733.275c.161.061 16.208 6.215 23.725 20.17 7.517 13.955 3.836 30.758 3.798 30.925l-.173.766zm-23.255-21.095c6.355 11.799 19.036 17.847 22.249 19.227.611-3.447 2.526-17.386-3.823-29.174-6.349-11.786-19.035-17.843-22.249-19.227-.611 3.449-2.526 17.387 3.823 29.174z" fill="#3F3D56"/><path d="M30.209 443.271c13.509 8.136 18.712 24.296 18.712 24.296s-16.7 2.969-30.209-5.167c-13.509-8.135-18.712-24.295-18.712-24.295s16.7-2.97 30.209 5.166zm163.006-285.95h-30.054v7.242h30.054v-7.242zm104.074 0h-10.574v7.242h10.574v-7.242zm21.149 0h-10.574v7.242h10.574v-7.242zm-42.854 0h-71.795v7.242h71.795v-7.242zm-16.14 46.798h-10.575v7.243h10.575v-7.243zm21.149 0h-10.575v7.243h10.575v-7.243zm-42.855 0h-71.794v7.243h71.794v-7.243zm41.742-30.642h-30.054v7.243h30.054v-7.243zm40.628 0h-30.054v7.243h30.054v-7.243zm-163.069 0h-10.574v7.243h10.574v-7.243zm82.369 0h-71.795v7.243h71.795v-7.243zm-52.316 22.842h30.054v-7.242h-30.054v7.242zm-40.627 0h30.053v-7.242h-30.053v7.242zm163.068 0h10.575v-7.242h-10.575v7.242zm-82.369 0h71.795v-7.242h-71.795v7.242zm6.294 141.656c15.102 0 27.345-12.255 27.345-27.373s-12.243-27.374-27.345-27.374c-15.103 0-27.345 12.256-27.345 27.374 0 15.118 12.242 27.373 27.345 27.373z" fill="#3391CC"/><g id="hero-human"><path d="M409.78 148.832c-7.935-13.421-23.634-14.046-23.634-14.046s-15.297-1.959-25.11 18.482c-9.147 19.053-21.77 37.448-2.032 41.909l3.565-11.108 2.208 11.935c2.81.202 5.629.25 8.445.144 21.137-.683 41.268.2 40.62-7.393-.862-10.094 3.573-27.009-4.062-39.923z" fill="#2F2E41"/><path d="M381.204 174.108s10.255 14.371 4.102 26.005c-6.153 11.633 14.356 23.952 14.356 23.952l15.04-32.849s-17.774-11.634-12.989-22.583l-20.509 5.475zm6.837 6.159c9.816 0 17.774-7.966 17.774-17.793 0-9.827-7.958-17.793-17.774-17.793-9.817 0-17.775 7.966-17.775 17.793 0 9.827 7.958 17.793 17.775 17.793zm-61.513 2.775l14.854-19.184s5.23-20.109 12.805-19.09c7.575 1.019-2.992 24.116-2.992 24.116l-14.759 21.235-9.908-7.077zm75.185 255.221l4.786 25.32 10.254 2.737-2.734-30.11-12.306 2.053zm103.229-27.374l18.458 25.32 7.52 3.422 6.153-10.265-18.458-23.952-13.673 5.475z" fill="#FBBEBE"/><path d="M397.611 213.115l-11.403-15.028s-22.095 4.079-24.146 6.132c-2.05 2.053 5.469 39.691 5.469 39.691s1.368 10.265 7.52 15.74l6.153 4.106 50.589-10.265 1.902-22.532c.693-8.207-.334-16.469-3.016-24.256-2.682-7.786-6.96-14.926-12.559-20.961l-8.802 1.204-11.707 26.169zm-32.814-7.528l-3.418-1.368-15.724-1.369s-5.469-1.369-4.101-4.106c1.367-2.737 2.734-3.422 0-4.106-2.735-.684-3.419-1.369-2.735-3.422.684-2.053 4.785-6.159 4.785-6.159l-11.621-9.581s-.629.446-1.646 1.27c-5.77 4.676-24.028 21.549-10.66 38.422 15.724 19.846 34.182 31.48 49.222 27.374l-4.102-36.955z" fill="#575A89"/><path d="M379.837 260.334v9.581s-6.152 11.634-4.102 22.583c2.051 10.95 2.735 16.425 2.735 16.425.223 9.312 1.836 18.538 4.785 27.373 4.786 13.687-10.938 103.335 8.888 104.704 19.825 1.369 30.763 2.737 36.916-4.106 6.153-6.843-10.255-124.55-10.255-124.55s56.058 117.022 67.68 112.232c11.622-4.79 41.018-15.74 37.6-21.899-3.418-6.159-89.556-143.027-89.556-143.027l-2.735-6.159-51.956 6.843zm32.814 198.459s-10.938-.684-10.938 2.737c0 3.422-5.469 15.056-5.469 15.056s-4.102 13.687 6.836 12.318c10.939-1.369 17.775-13.687 17.775-13.687l-2.735-13.002-5.469-3.422zm114.167-23.952s-9.571-6.159-8.887-2.053c.684 4.106 1.367 15.055 6.153 15.74 4.785.684 19.141 4.79 19.825 6.159.684 1.368 17.091 6.843 17.091-2.053 0-8.897-10.255-15.74-10.255-15.74l-11.621-8.896s-7.52-.685-8.888 4.106c-1.367 4.79-3.418 2.737-3.418 2.737zm-138.75-288.625c6.269 0 11.351-5.087 11.351-11.362 0-6.276-5.082-11.363-11.351-11.363-6.269 0-11.351 5.087-11.351 11.363 0 6.275 5.082 11.362 11.351 11.362zm-12.546-14.353c0-2.806 1.038-5.513 2.913-7.599 1.875-2.086 4.455-3.404 7.243-3.699-1.583-.169-3.184-.003-4.698.488-1.515.491-2.91 1.296-4.093 2.361-1.184 1.066-2.131 2.369-2.779 3.824-.648 1.456-.983 3.032-.983 4.625 0 1.594.335 3.17.983 4.626.648 1.455 1.595 2.758 2.779 3.824 1.183 1.065 2.578 1.87 4.093 2.361 1.514.49 3.115.657 4.698.488-2.788-.295-5.368-1.613-7.243-3.699s-2.913-4.793-2.913-7.6zm30.749 15.676l-15.509-8.133-21.418 3.327-4.43 19.592 11.03-.425 3.082-7.198v7.079l5.09-.195 2.953-11.46 1.847 12.199 18.094-.37-.739-14.416z" fill="#2F2E41"/><path d="M405.343 261.92l-23.918.647s-20.41 3.976-19.265-4.271c1.146-8.246 21.056-5.362 21.056-5.362l21.794-3.328.333 12.314z" fill="#FBBEBE"/><path d="M424.267 184.581c1.203-.182 2.43.072 3.462.715 1.033.643 1.801 1.634 2.169 2.795 4.682 14.771 19.108 64.2 4.775 70.981-16.881 7.988-29.201 7.637-29.201 7.637l-6.594-16.252 6.003-5.639 6.409-41.249 3.071-17.485 9.906-1.503z" fill="#575A89"/><path opacity=".4" d="M419.83 212.088l-2.735 27.374-23.927 10.265 26.662-6.159v-31.48z"/></g></g><defs><clipPath id="a"><path fill="#fff" d="M0 0h561v489h-561z"/></clipPath></defs>
    </symbol>

    <!-- Introduction Image -->
    <symbol id="introduction-img" width="546" height="424" viewBox="0 0 546 424">
        <g clip-path="url(#a)"><path d="M404.521 242.229l-108.431-135.464c-4.923 4.501-10.989 7.563-17.535 8.852-20.414 4.019-40.349-9.917-44.527-31.128-2.954-14.994 2.764-29.6 13.576-38.299l-36.972-46.19-210.632 179.973 193.889 242.23 210.632-179.974z" fill="#F2F2F2"/><path d="M46.236 423.437h499.764" stroke="#3F3D56" stroke-width="2" stroke-miterlimit="10"/><path d="M348.613 40.327c4.587 0 8.305-3.717 8.305-8.302 0-4.585-3.718-8.302-8.305-8.302-4.586 0-8.304 3.717-8.304 8.302 0 4.585 3.718 8.302 8.304 8.302zm109.746 241.381c4.586 0 8.304-3.717 8.304-8.303 0-4.585-3.718-8.302-8.304-8.302-4.587 0-8.305 3.717-8.305 8.302 0 4.586 3.718 8.303 8.305 8.303zm-362.292-220.563c4.586 0 8.304-3.717 8.304-8.302 0-4.585-3.718-8.302-8.304-8.302s-8.304 3.717-8.304 8.302c0 4.585 3.718 8.302 8.304 8.302z" stroke="#3F3D56" stroke-width="2" stroke-miterlimit="10"/><path d="M269.792 109.181c16.882 0 30.568-13.682 30.568-30.561 0-16.878-13.686-30.561-30.568-30.561-16.883 0-30.569 13.683-30.569 30.561s13.686 30.561 30.569 30.561z" fill="#F2F2F2"/><path d="M88.294 61.544h135.418c6.534 0 12.874 2.223 17.978 6.303 5.104 4.08 8.667 9.775 10.104 16.148l68.424 303.424c.746 3.309.759 6.742.038 10.057-.721 3.316-2.158 6.433-4.212 9.134-2.053 2.701-4.673 4.92-7.675 6.502-3.002 1.582-6.313 2.488-9.703 2.655l-139.21 6.857c-7.454.367-14.788-1.989-20.632-6.631-5.843-4.641-9.799-11.249-11.127-18.591l-38.814-214.525-2.888.825-7.427-40.66 2.972-.743-10.834-59.881c-.464-2.565-.356-5.201.315-7.719.672-2.519 1.891-4.858 3.57-6.851 1.68-1.994 3.779-3.592 6.147-4.681 2.368-1.09 4.948-1.643 7.555-1.622z" fill="#3F3D56"/><path d="M205.884 68.085h15.808c4.539 0 8.942 1.552 12.478 4.399 3.535 2.847 5.991 6.817 6.958 11.251l65.678 300.948c.378 1.733.378 3.527-.001 5.259-.379 1.733-1.127 3.363-2.194 4.78-1.067 1.417-2.427 2.587-3.988 3.43-1.56.844-3.285 1.34-5.055 1.456l-138.76 9.092c-3.914.257-7.786-.937-10.877-3.353-3.091-2.415-5.183-5.884-5.879-9.744l-56.043-311.06c-.363-2.013-.279-4.082.245-6.059.524-1.977 1.476-3.816 2.788-5.385 1.312-1.569 2.953-2.832 4.807-3.698 1.854-.866 3.875-1.315 5.921-1.315h14.996c1.451 0 2.862.478 4.014 1.361 1.152.883 1.981 2.12 2.358 3.521.333 1.237 1.065 2.33 2.082 3.109 1.017.779 2.262 1.201 3.544 1.201h71.19c2.509 0 4.925-.947 6.766-2.651 1.841-1.704 2.971-4.041 3.163-6.542z" fill="#3391CC"/><path d="M250.091 145.87h-143.584v.707h143.584v-.707zm5.659 22.981h-144.999v.708h144.999v-.708zm-140.176-24.101l3.263-4.349-.566-.424-2.819 3.758-10.866-8.887-.447.548 11.435 9.354zm18.744 102.534l3.263-4.348-.566-.424-2.82 3.758-10.865-8.887-.448.547 11.436 9.354zm137.339.06l-150.304 3.182.015.707 150.304-3.182-.015-.707zm4.596 20.86l-153.132 3.536.016.707 153.133-3.536-.017-.707z" fill="#2F2E41"/><path opacity=".1" d="M182.366 328.487c0 8.909 3.54 17.452 9.841 23.751 6.3 6.3 14.846 9.838 23.756 9.838 8.911 0 17.457-3.538 23.757-9.838 6.301-6.299 9.841-14.842 9.841-23.751 0-.42-.007-.837-.025-1.255-.329-8.793-4.096-17.106-10.492-23.152-6.396-6.045-14.909-9.34-23.709-9.176-8.8.165-17.185 3.775-23.35 10.055-6.165 6.281-9.619 14.729-9.619 23.528zm3.183 13.083c0 .42.007.837.025 1.255 3.259 6.901 8.772 12.488 15.63 15.839 6.859 3.352 14.654 4.268 22.104 2.599 7.449-1.669 14.108-5.824 18.879-11.782 4.772-5.957 7.373-13.361 7.374-20.994 0-.42-.007-.837-.025-1.255-3.259-6.901-8.772-12.488-15.63-15.839-6.859-3.352-14.655-4.268-22.104-2.599-7.449 1.669-14.108 5.824-18.88 11.782-4.772 5.957-7.372 13.361-7.373 20.994z"/><path d="M389.992 152.884c11.439 0 20.711-9.27 20.711-20.706 0-11.435-9.272-20.706-20.711-20.706-11.438 0-20.711 9.271-20.711 20.706 0 11.436 9.273 20.706 20.711 20.706z" fill="#2F2E41"/><path d="M412.336 391.647l3.939 16.88h-9.567l-3.94-19.131 9.568 2.251zm-46.149 0v15.755l-9.568 1.125v-16.88h9.568zm48.963-178.926s-1.126 24.195-2.252 25.883c-1.125 1.688-11.256 25.882-11.256 25.882l-5.065-15.754s7.879-12.942 6.754-20.256c-1.126-7.315-.417-16.316-.417-16.316l12.236.561zm-32.08-58.516c8.703 0 15.758-7.054 15.758-15.755s-7.055-15.754-15.758-15.754-15.758 7.053-15.758 15.754 7.055 15.755 15.758 15.755zm12.944-14.067s-.562 22.507 3.377 25.883c3.94 3.375-22.512.562-22.512.562s5.628-15.754 1.126-19.13c-4.502-3.376 18.009-7.315 18.009-7.315z" fill="#9F616A"/><path d="M375.191 165.458s3.377-6.189 7.879-5.627c4.503.563 19.135 1.688 19.698 2.814.563 1.125 2.251 5.064 3.377 6.189 1.125 1.125 9.567 2.813 10.13 9.565.563 6.752-20.26 47.826-20.26 47.826s2.813 9.565 2.251 11.816c-.563 2.251 2.814 9.003 2.251 11.816-.563 2.813 8.442 19.693 3.939 41.637v35.447s15.196 61.33 10.694 65.831c-4.503 4.502-19.698 1.688-22.512 0l-14.633-86.649-5.628-28.696-.563 63.018s1.126 52.89-2.814 54.578c-3.939 1.688-19.135 2.251-20.26-1.125-.878-2.633-5.18-72.69-7.03-103.398-.641-10.6.193-21.237 2.478-31.608 2.342-10.622 5.743-23.101 9.617-28.166 7.316-9.565 11.818-39.948 11.818-39.948l-9.567-17.443s5.628-5.626 9.005-5.626c3.376 0 10.13-2.251 10.13-2.251zm37.707 9.002l2.968 2.02s2.098 36.241.409 38.492c-1.688 2.251-13.427 1.152-14.311-.831-.884-1.982 10.934-39.681 10.934-39.681z" fill="#2F2E41"/><path d="M362.71 207.412c1.647 11.425 3.091 21.597-5.332 30.798-8.466 9.312-18.013 17.581-28.441 24.629-1.033 2.736-16.2 22.828-16.971 14.814-.772-8.015 4.468-14.298 11.915-21.075 7.447-6.778 17.864-21.483 23.743-29.552 5.878-8.068 3.458-13.1 3.254-19.84-.205-6.739 9.521.307 11.832.226z" fill="#9F616A"/><path d="M356.619 398.286s-.563 6.302-2.252 7.99c-1.688 1.688-6.19 3.939-5.627 10.128.562 6.189 4.22 6.471 4.22 6.471l-.281-1.407 1.688.563.282.844h15.758s.282-5.908-.281-8.722c-.563-2.813-.563-16.317-2.251-15.754-1.689.563-6.191 1.125-7.317 3.376-1.125 2.251-4.502 1.462-3.939-3.489zm57.405 0s.563 6.302 2.251 7.99c1.688 1.688 6.191 3.939 5.628 10.128-.563 6.189-4.221 6.471-4.221 6.471l.281-1.407-1.688.563-.281.844h-15.759s-.281-5.908.282-8.722c.563-2.813.563-16.317 2.251-15.754 1.688.563 6.191 1.125 7.316 3.376 1.126 2.251 4.503 1.462 3.94-3.489zm-50.089-226.639l-7.879 1.688s0 12.379-2.251 17.443c-2.252 5.064-6.191 16.879-4.503 17.442 1.689.563 17.447 8.44 18.573 3.939 1.125-4.502 3.939-40.512-3.94-40.512zm48.494-46.026c11.439 0 20.711-9.27 20.711-20.705 0-11.436-9.272-20.706-20.711-20.706-11.438 0-20.71 9.27-20.71 20.706 0 11.435 9.272 20.705 20.71 20.705zm17.864-3.56c-2.68 1.937-5.786 3.204-9.057 3.695-3.271.491-6.611.192-9.743-.873-3.131-1.064-5.962-2.863-8.256-5.245-2.293-2.383-3.983-5.28-4.927-8.449.358 2.84 1.3 5.575 2.768 8.033 1.468 2.457 3.429 4.584 5.761 6.245 2.331 1.662 4.982 2.822 7.784 3.407 2.803.586 5.697.584 8.499-.005 2.801-.588 5.451-1.752 7.78-3.416 2.33-1.664 4.289-3.793 5.754-6.252 1.465-2.46 2.404-5.196 2.758-8.036.354-2.841.114-5.724-.702-8.467.464 3.685-.073 7.428-1.554 10.835-1.482 3.407-3.853 6.353-6.865 8.528zm-34.778 28.752c8.388 0 15.188-6.798 15.188-15.184s-6.8-15.184-15.188-15.184c-8.388 0-15.188 6.798-15.188 15.184s6.8 15.184 15.188 15.184zm-12.771-10.353c7.434 0 13.462-4.712 13.462-10.525 0-5.813-6.028-10.525-13.462-10.525-7.435 0-13.463 4.712-13.463 10.525 0 5.813 6.028 10.525 13.463 10.525z" fill="#2F2E41"/><path d="M379.153 145.24c1.411 0 2.555-2.024 2.555-4.52 0-2.495-1.144-4.519-2.555-4.519-1.411 0-2.555 2.024-2.555 4.519 0 2.496 1.144 4.52 2.555 4.52z" fill="#A0616A"/></g><defs><clipPath id="a"><path fill="#fff" d="M0 0h546v424h-546z"/></clipPath></defs>
    </symbol>

    <!-- Local Dialect Icon -->
    <symbol id="local-dialect-icon" width="71" height="71" viewBox="0 0 71 71">
        <circle cx="35.5" cy="35.5" r="35.5" fill="#3391CC"/><path d="M43.931 21.939c3.585 3.905 3.585 9.319 0 12.904l-2.982-3c1.491-2.095 1.491-4.81 0-6.905l2.982-3zm5.875-5.964c6.994 7.189 6.923 17.945 0 24.85l-2.893-2.893c4.917-5.645 4.917-13.703 0-19.064l2.893-2.893zm-19.631 5.325c3.905 0 7.1 3.177 7.1 7.1 0 3.923-3.195 7.1-7.1 7.1s-7.1-3.177-7.1-7.1c0-3.923 3.177-7.1 7.1-7.1zm7.1 18.708c0 1.882-.515 6.266-3.905 11.165l-1.42-8.573 1.651-3.337c-1.1-.124-2.254-.213-3.426-.213-1.172 0-2.361.089-3.461.213l1.686 3.337-1.455 8.573c-3.39-4.899-3.87-9.283-3.87-11.165-4.26 1.242-7.111 3.479-7.111 6.142v7.1h28.411v-7.1c0-2.663-2.858-4.899-7.1-6.142z" fill="#fff"/>
    </symbol>

    <!-- Mood Icon -->
    <symbol id="mood-icon" width="71" height="71" viewBox="0 0 71 71">
        <circle cx="35.5" cy="35.5" r="35.5" fill="#3391CC"/><path d="M35.5 45.263c4.136 0 7.633-2.592 9.07-6.213h-18.14c1.42 3.621 4.934 6.213 9.07 6.213zm-6.212-11.538c.706 0 1.383-.281 1.883-.78.499-.499.78-1.177.78-1.883s-.28-1.383-.78-1.883c-.499-.499-1.177-.78-1.883-.78s-1.383.28-1.883.78c-.499.499-.78 1.177-.78 1.883s.28 1.383.78 1.883c.499.499 1.177.78 1.883.78zm12.425 0c.706 0 1.383-.281 1.883-.78.499-.499.78-1.177.78-1.883s-.28-1.383-.78-1.883c-.499-.499-1.176-.78-1.883-.78-.706 0-1.383.28-1.883.78-.499.499-.78 1.177-.78 1.883s.28 1.383.78 1.883c.499.499 1.176.78 1.883.78zm-6.213 15.975c-3.766 0-7.378-1.496-10.041-4.159-2.663-2.663-4.159-6.275-4.159-10.041s1.496-7.378 4.159-10.041c2.663-2.663 6.275-4.159 10.041-4.159s7.378 1.496 10.041 4.159c2.663 2.663 4.159 6.275 4.159 10.041s-1.496 7.378-4.159 10.041c-2.663 2.663-6.275 4.159-10.041 4.159zm0-31.95c-9.816 0-17.75 7.988-17.75 17.75 0 4.708 1.87 9.222 5.199 12.551 1.648 1.648 3.605 2.956 5.759 3.848 2.154.892 4.462 1.351 6.793 1.351 4.708 0 9.222-1.87 12.551-5.199 3.329-3.329 5.199-7.843 5.199-12.551 0-2.331-.459-4.639-1.351-6.793-.892-2.154-2.199-4.11-3.848-5.759-1.648-1.648-3.605-2.956-5.759-3.848-2.153-.892-4.462-1.351-6.793-1.351z" fill="#fff"/>
    </symbol>

    <!-- Voice Icon -->
    <symbol id="voice-icon" width="71" height="71" viewBox="0 0 71 71">
        <circle cx="35.5" cy="35.5" r="35.5" fill="#3391CC"/><path d="M35.5 17.75c1.412 0 2.767.561 3.765 1.56.999.999 1.56 2.353 1.56 3.765v10.65c0 1.412-.561 2.767-1.56 3.765-.999.999-2.353 1.56-3.765 1.56s-2.767-.561-3.765-1.56c-.999-.999-1.56-2.353-1.56-3.765v-10.65c0-1.412.561-2.767 1.56-3.765.999-.999 2.353-1.56 3.765-1.56zm12.425 15.975c0 6.266-4.633 11.431-10.65 12.301v5.449h-3.55v-5.449c-6.017-.87-10.65-6.035-10.65-12.301h3.55c0 2.354.935 4.611 2.599 6.276 1.664 1.664 3.922 2.599 6.276 2.599 2.354 0 4.611-.935 6.276-2.599 1.664-1.664 2.599-3.922 2.599-6.276h3.55z" fill="#fff"/>
    </symbol>
    
</svg>